<svg xmlns="http://www.w3.org/2000/svg" xmlns:xlink="http://www.w3.org/1999/xlink" width="135" height="100" viewBox="0 0 135 100">
  <defs>
    <filter id="Retângulo_5">
      <feOffset dy="3" input="SourceAlpha"/>
      <feGaussianBlur stdDeviation="3" result="blur"/>
      <feFlood result="color"/>
      <feComposite operator="out" in="SourceGraphic" in2="blur"/>
      <feComposite operator="in" in="color"/>
      <feComposite operator="in" in2="SourceGraphic"/>
    </filter>
    <filter id="Polígono_2">
      <feOffset dy="3" input="SourceAlpha"/>
      <feGaussianBlur stdDeviation="3" result="blur-2"/>
      <feFlood result="color-2"/>
      <feComposite operator="out" in="SourceGraphic" in2="blur-2"/>
      <feComposite operator="in" in="color-2"/>
      <feComposite operator="in" in2="SourceGraphic"/>
    </filter>
    <filter id="Retângulo_6">
      <feOffset dy="3" input="SourceAlpha"/>
      <feGaussianBlur stdDeviation="3" result="blur-3"/>
      <feFlood result="color-3"/>
      <feComposite operator="out" in="SourceGraphic" in2="blur-3"/>
      <feComposite operator="in" in="color-3"/>
      <feComposite operator="in" in2="SourceGraphic"/>
    </filter>
  </defs>
  <g id="Grupo_1" data-name="Grupo 1" transform="translate(-310 -19)">
    <g data-type="innerShadowGroup">
      <rect id="Retângulo_5-2" data-name="Retângulo 5" width="40" height="100" transform="translate(310 19)" fill="#fff"/>
      <g transform="matrix(1, 0, 0, 1, 310, 19)" filter="url(#Retângulo_5)">
        <rect id="Retângulo_5-3" data-name="Retângulo 5" width="40" height="100" fill="#fff"/>
      </g>
      <g id="Retângulo_5-4" data-name="Retângulo 5" transform="translate(310 19)" fill="none" stroke="#000" stroke-width="2">
        <rect width="40" height="100" stroke="none"/>
        <rect x="1" y="1" width="38" height="98" fill="none"/>
      </g>
    </g>
    <g data-type="innerShadowGroup">
      <g id="Polígono_2-2" data-name="Polígono 2" transform="translate(310 49)" fill="#fff">
        <path d="M 132.6465454101562 69 L 2.353459119796753 69 L 67.5 1.440624237060547 L 132.6465454101562 69 Z" stroke="none"/>
        <path d="M 67.5 2.881278991699219 L 4.706954956054688 68 L 130.2930450439453 68 L 67.5 2.881278991699219 M 67.5 0 L 135 70 L 0 70 L 67.5 0 Z" stroke="none"/>
      </g>
      <g transform="matrix(1, 0, 0, 1, 310, 19)" filter="url(#Polígono_2)">
        <g id="Polígono_2-3" data-name="Polígono 2" transform="translate(0 30)" fill="#fff">
          <path d="M 132.6465454101562 69 L 2.353459119796753 69 L 67.5 1.440624237060547 L 132.6465454101562 69 Z" stroke="none"/>
          <path d="M 67.5 2.881278991699219 L 4.706954956054688 68 L 130.2930450439453 68 L 67.5 2.881278991699219 M 67.5 0 L 135 70 L 0 70 L 67.5 0 Z" stroke="none"/>
        </g>
      </g>
      <g id="Polígono_2-4" data-name="Polígono 2" transform="translate(310 49)" fill="none">
        <path d="M 132.6465454101562 69 L 2.353459119796753 69 L 67.5 1.440624237060547 L 132.6465454101562 69 Z" stroke="none"/>
        <path d="M 67.5 2.881278991699219 L 4.706954956054688 68 L 130.2930450439453 68 L 67.5 2.881278991699219 M 67.5 0 L 135 70 L 0 70 L 67.5 0 Z" stroke="none" fill="#000"/>
      </g>
    </g>
    <g data-type="innerShadowGroup">
      <rect id="Retângulo_6-2" data-name="Retângulo 6" width="40" height="100" transform="translate(405 19)" fill="#fff"/>
      <g transform="matrix(1, 0, 0, 1, 310, 19)" filter="url(#Retângulo_6)">
        <rect id="Retângulo_6-3" data-name="Retângulo 6" width="40" height="100" transform="translate(95)" fill="#fff"/>
      </g>
      <g id="Retângulo_6-4" data-name="Retângulo 6" transform="translate(405 19)" fill="none" stroke="#000" stroke-width="2">
        <rect width="40" height="100" stroke="none"/>
        <rect x="1" y="1" width="38" height="98" fill="none"/>
      </g>
    </g>
  </g>
</svg>
